<svg width="168" height="131" viewBox="0 0 168 131" fill="none" xmlns="http://www.w3.org/2000/svg">
<g filter="url(#filter0_di_33_2090)">
<path d="M148 68.3038C148 49.6709 133.013 35.0886 114.785 35.0886C110.734 35.0886 107.089 35.8987 103.443 37.1139C102.228 23.3418 90.8861 12 76.7089 12C61.7215 12 49.5696 24.1519 49.5696 39.1392C49.5696 42.3798 50.3797 45.6203 51.1899 48.4557C49.9747 48.0506 48.3544 48.0506 47.1392 48.0506C32.1519 48.0506 20 60.2025 20 75.1899C20 89.7721 31.7468 101.924 46.3291 102.329H116C133.823 100.304 148 86.1266 148 68.3038Z" fill="white"/>
</g>
<defs>
<filter id="filter0_di_33_2090" x="0" y="0" width="168" height="130.329" filterUnits="userSpaceOnUse" color-interpolation-filters="sRGB">
<feFlood flood-opacity="0" result="BackgroundImageFix"/>
<feColorMatrix in="SourceAlpha" type="matrix" values="0 0 0 0 0 0 0 0 0 0 0 0 0 0 0 0 0 0 127 0" result="hardAlpha"/>
<feOffset dy="8"/>
<feGaussianBlur stdDeviation="10"/>
<feComposite in2="hardAlpha" operator="out"/>
<feColorMatrix type="matrix" values="0 0 0 0 0 0 0 0 0 0 0 0 0 0 0 0 0 0 0.15 0"/>
<feBlend mode="normal" in2="BackgroundImageFix" result="effect1_dropShadow_33_2090"/>
<feBlend mode="normal" in="SourceGraphic" in2="effect1_dropShadow_33_2090" result="shape"/>
<feColorMatrix in="SourceAlpha" type="matrix" values="0 0 0 0 0 0 0 0 0 0 0 0 0 0 0 0 0 0 127 0" result="hardAlpha"/>
<feOffset dy="8"/>
<feGaussianBlur stdDeviation="10"/>
<feComposite in2="hardAlpha" operator="arithmetic" k2="-1" k3="1"/>
<feColorMatrix type="matrix" values="0 0 0 0 0.721569 0 0 0 0 0.8 0 0 0 0 0.85098 0 0 0 1 0"/>
<feBlend mode="normal" in2="shape" result="effect2_innerShadow_33_2090"/>
</filter>
</defs>
</svg>
