<svg width="36" height="36" viewBox="0 0 36 36" fill="none" xmlns="http://www.w3.org/2000/svg">
<path d="M13.8728 9.6012C13.7958 9.6012 13.7189 9.65892 13.7189 9.79361C13.7189 9.88981 13.7574 9.90905 13.7574 9.96678C13.7574 10.0245 13.8151 10.1207 13.7189 10.1592C13.6419 10.2169 13.6804 10.7364 13.6804 10.8134C13.6612 10.9866 13.7958 11.0635 13.8536 11.0828C13.9113 11.102 14.4116 11.1405 14.6617 11.1212C14.8926 11.102 15.008 11.2752 15.008 11.3714C14.9888 11.583 14.527 11.8909 14.45 11.9678C14.1999 12.1603 14.1229 12.2757 14.1999 12.3527C14.2769 12.4296 14.3538 12.4296 14.5078 12.2757C14.5655 12.1987 15.1042 11.8332 15.1812 11.66C15.2774 11.4291 15.2004 10.9866 15.1812 10.8519C15.162 10.7172 15.0658 10.621 14.8733 10.621C14.6809 10.621 14.1807 10.7172 14.0845 10.544C13.9883 10.3516 14.0652 10.1207 14.0652 9.92829C14.0652 9.73588 14.0652 9.6012 13.8728 9.6012Z" fill="white"/>
<path d="M15.6236 10.6018C15.5659 10.621 15.4312 10.6402 15.4505 10.9289C15.4697 11.1982 15.5852 11.2367 15.6429 11.3329C15.7006 11.4099 15.7198 11.4676 15.6429 11.5831C15.5659 11.6985 15.4697 11.9871 15.5082 12.1988C15.5467 12.4297 15.6621 12.4297 15.7583 12.4297C15.8545 12.4297 16.1239 12.4104 16.1239 12.1795C16.1239 11.9679 16.0085 12.0448 15.9892 11.9294C15.9892 11.8909 15.9892 11.7947 16.0085 11.7755C16.0277 11.7562 16.0469 11.737 16.1624 11.737C16.2586 11.737 16.5665 11.9871 16.6242 12.1026C16.6819 12.218 16.7589 12.3719 16.8743 12.3719C16.9705 12.3719 17.1052 12.3912 17.086 12.0641C17.0667 11.737 16.9513 11.7177 16.8551 11.6215C16.7589 11.5253 16.6434 11.4099 16.8166 11.2752C17.009 11.1598 17.2206 11.179 17.0667 10.8519C16.932 10.5248 16.8166 10.5633 16.7011 10.5633C16.6049 10.5633 16.451 10.621 16.451 10.8327C16.451 10.9866 16.4702 11.1213 16.4125 11.1405C16.3356 11.179 16.1816 11.179 16.0854 11.1213C15.9892 11.0828 15.9507 10.9289 15.8353 10.6787C15.7583 10.6018 15.6814 10.5825 15.6236 10.6018Z" fill="white"/>
<path d="M17.5477 10.5632C17.49 10.5632 17.3746 10.621 17.3553 10.6979C17.3361 10.7749 17.3553 11.0058 17.3938 11.0635C17.4323 11.1405 17.5285 11.1405 17.6055 11.1789C17.6824 11.2174 17.7786 11.2559 17.7786 11.4868C17.7786 11.7177 17.7594 12.3142 17.8364 12.3911C17.8941 12.4681 17.9326 12.4489 17.971 12.4489C18.0095 12.4489 18.1057 12.3911 18.1057 12.2949C18.1057 12.1602 18.048 12.064 17.9903 11.9486C17.9326 11.8139 17.9133 11.4291 17.9133 11.2367C17.9133 11.0635 17.9903 10.8134 17.8364 10.6787C17.7401 10.621 17.5862 10.5632 17.5477 10.5632Z" fill="white"/>
<path d="M18.5098 10.6018C18.5098 10.6018 18.2212 10.621 18.2404 10.9097C18.2597 11.1598 18.4328 11.179 18.4713 11.2175C18.5098 11.256 18.6445 11.2945 18.6252 11.5446C18.606 11.7948 18.606 11.9102 18.4713 12.0064C18.3751 12.0641 18.3174 12.1988 18.3751 12.2758C18.4713 12.372 18.5868 12.4874 18.6637 12.4105C18.7214 12.3335 18.7792 12.0834 18.7599 11.8717C18.7599 11.6408 18.7599 11.2368 18.7407 11.0828C18.7214 10.8904 18.7984 10.621 18.5098 10.6018Z" fill="white"/>
<path d="M19.2602 10.698C19.2218 10.7172 19.1448 10.7557 19.1063 10.8712C19.0871 10.9866 19.1256 11.1213 19.1448 11.179C19.164 11.2367 19.241 11.3714 19.241 11.4869C19.2218 11.6023 19.1448 11.7178 19.1256 11.814C19.1063 11.9102 18.9331 12.2373 19.164 12.372C19.3949 12.5066 19.3372 12.2757 19.3372 12.1795C19.3372 12.0833 19.2795 11.8332 19.4142 11.6216C19.5489 11.4099 19.6835 11.2367 19.9529 11.2367C20.2415 11.2367 20.3762 11.3907 20.4147 11.6408C20.4532 11.8909 20.3762 11.9294 20.2608 11.9486C20.1453 11.9679 19.6835 11.9102 19.5873 11.9679C19.5104 12.0256 19.4142 12.1218 19.4334 12.2757C19.4719 12.4297 19.4527 12.4682 19.5873 12.4874C19.722 12.5066 20.3762 12.4874 20.4532 12.4682C20.5302 12.4489 20.6456 12.4104 20.6071 12.0641C20.5879 11.7178 20.5686 11.3714 20.5686 11.3329C20.5686 11.2752 20.4917 11.0251 20.3955 10.9289C20.3185 10.8327 20.2223 10.6403 20.0299 10.7172C19.8375 10.8134 19.8375 10.9481 19.7605 10.9674C19.6835 10.9866 19.6258 11.0251 19.4719 10.8327C19.4334 10.698 19.318 10.6595 19.2602 10.698Z" fill="white"/>
<path d="M21.0497 10.6402C20.9919 10.6594 20.8572 10.7364 20.8957 10.8518C20.9342 10.9673 21.1266 11.2367 21.1651 11.2944C21.2228 11.3521 21.4152 11.6407 21.396 11.7754C21.3767 11.9101 21.1843 12.0255 21.0497 12.1025C20.915 12.1795 20.838 12.3142 21.0112 12.3911C21.1843 12.4681 21.6654 12.4104 21.7231 12.3911C21.7616 12.3911 21.9347 12.2949 21.9347 12.1217C21.9347 11.9293 21.9925 11.9101 22.0309 11.8331C22.0694 11.7369 22.1849 11.4483 22.1849 11.3713C22.1849 11.2944 22.2426 11.0058 22.1849 10.8518C22.1272 10.6979 21.9925 10.4863 21.7231 10.5247C21.5307 10.544 21.6269 10.9673 21.6461 11.025C21.6846 11.102 21.954 11.2367 21.9155 11.4291C21.877 11.6215 21.8193 11.66 21.7038 11.66C21.5884 11.66 21.4152 11.4675 21.4152 11.3136C21.4152 11.1597 21.4922 11.0058 21.473 10.9096C21.4922 10.7749 21.3767 10.5632 21.0497 10.6402Z" fill="white"/>
<path d="M15.9124 14.5654L12.4875 16.5472C12.2758 16.6819 12.1411 16.8935 12.1411 17.1437V23.2431C12.1411 23.4932 12.2758 23.7241 12.4875 23.8396L17.7403 26.8989C17.9519 27.0336 18.2213 27.0336 18.4329 26.8989L23.7242 23.8396C23.9359 23.7241 24.0706 23.4932 24.0706 23.2431V17.1437C24.0706 16.8935 23.9359 16.6627 23.7242 16.5472L20.2993 14.5654C19.9722 14.373 19.5489 14.4884 19.3565 14.8155C19.2988 14.931 19.2603 15.0464 19.2603 15.1619C19.2603 15.3927 19.3757 15.6429 19.6066 15.7583C19.6066 15.7583 22.1272 17.2206 22.6852 17.5285C22.6852 18.1827 22.6852 22.1656 22.6852 22.8198C22.1272 23.1469 18.6446 25.148 18.0866 25.4751C17.5286 25.148 14.0845 23.1469 13.5265 22.8198C13.5265 22.1656 13.5265 18.1827 13.5265 17.5285C14.0845 17.2014 16.605 15.7391 16.605 15.7391C16.8359 15.6044 16.9514 15.3735 16.9514 15.1426C16.9514 15.0272 16.9129 14.9117 16.8552 14.7963C16.6628 14.4884 16.2395 14.373 15.9124 14.5654Z" fill="white"/>
<path d="M8.92784 14.8925C8.73543 15.2195 8.85088 15.6429 9.17797 15.8353L11.0444 16.9128C11.3715 17.1052 11.7948 16.9897 11.9872 16.6626C12.1796 16.3355 12.0641 15.9122 11.737 15.7198L9.87065 14.6423C9.54355 14.4499 9.12025 14.5654 8.92784 14.8925Z" fill="white"/>
<path d="M26.3409 14.6423L24.4938 15.7198C24.1667 15.9122 24.0512 16.3355 24.2436 16.6626C24.436 16.9897 24.8593 17.1052 25.1864 16.9128L27.0528 15.8353C27.3799 15.6429 27.4954 15.2195 27.303 14.8925C27.1106 14.5654 26.6872 14.4499 26.3409 14.6423Z" fill="white"/>
<path d="M24.3207 14.4499C24.3207 14.9694 23.8973 15.3735 23.3971 15.3735C22.8776 15.3735 22.4735 14.9502 22.4735 14.4499C22.4735 13.9304 22.8968 13.5264 23.3971 13.5264C23.8973 13.5264 24.3207 13.9304 24.3207 14.4499Z" fill="white"/>
<path d="M13.7573 14.4499C13.7573 14.9694 13.334 15.3735 12.8337 15.3735C12.3142 15.3735 11.9102 14.9502 11.9102 14.4499C11.9102 13.9304 12.3335 13.5264 12.8337 13.5264C13.334 13.5264 13.7573 13.9304 13.7573 14.4499Z" fill="white"/>
<path d="M19.0294 17.5863C19.0294 18.1058 18.6061 18.5099 18.1058 18.5099C17.5863 18.5099 17.1823 18.0866 17.1823 17.5863C17.1823 17.0668 17.6056 16.6627 18.1058 16.6627C18.6253 16.6627 19.0294 17.0668 19.0294 17.5863Z" fill="white"/>
<path d="M14.0845 17.8941C13.892 18.2212 14.0075 18.6445 14.3346 18.8369L16.3164 19.9914C16.6435 20.1838 17.0668 20.0683 17.2592 19.7412C17.4516 19.4141 17.3362 18.9908 17.0091 18.7984L15.0273 17.6439C14.7002 17.4515 14.2769 17.5477 14.0845 17.8941Z" fill="white"/>
<path d="M21.1651 17.6439L18.7023 19.0678C17.6633 19.645 17.4324 20.0298 17.4324 21.1843V24.1667C17.4324 24.5515 17.7402 24.8593 18.1251 24.8593C18.5099 24.8593 18.8177 24.5515 18.8177 24.1667V21.1843C18.8177 20.5878 18.8177 20.5878 19.395 20.28L21.8771 18.8369C22.2042 18.6445 22.3196 18.2212 22.1272 17.8941C21.9155 17.5477 21.4922 17.4515 21.1651 17.6439Z" fill="white"/>
<path d="M7.79258 14.296L7.65789 14.7962L7.23459 14.6808L6.7728 14.5461L6.54191 15.3735L6.96521 15.4889L7.427 15.6236L7.29231 16.1239L6.40722 15.8737L5.84923 15.7198L5.23352 15.5466L5.36821 15.0464L5.75303 15.1618L6.13785 15.2773L6.36874 14.4499L5.96468 14.3345L5.57986 14.219L5.71455 13.7188L6.61888 13.9689L7.15763 14.1228L7.79258 14.296Z" fill="white"/>
<path d="M7.25383 12.9876L6.79205 12.4681L6.7728 12.4488L7.46548 12.5451L7.25383 12.9876ZM7.92727 12.141L7.35004 12.0833C7.11914 12.064 6.98446 12.0448 6.94597 12.0448C6.7728 12.0255 6.63812 12.0063 6.54191 11.9871L6.2533 12.5451L6.6766 13.0453L7.25383 13.738L7.73486 14.3345L7.98499 13.8342L7.54245 13.2762L7.86954 12.6413L8.25436 12.699L8.58146 12.7375L8.8316 12.2372L7.92727 12.141Z" fill="white"/>
<path d="M10.0053 10.7557L9.62052 11.2367L8.88936 11.1405L8.46606 11.0828L7.94655 11.0058L8.56227 11.5061L9.10101 11.9294L8.8124 12.2949L8.00427 11.66L7.13843 10.9673L7.52325 10.467L9.21646 10.7364L8.04276 9.81285L8.33137 9.44727L9.00481 9.96677L9.48584 10.3324L10.0053 10.7557Z" fill="white"/>
<path d="M10.7942 9.35113C10.852 9.40886 10.8712 9.46658 10.9097 9.5243C10.9289 9.58203 10.9482 9.65899 10.9482 9.73595C10.9482 9.81292 10.9289 9.88988 10.8712 9.98609C10.8327 10.0631 10.7558 10.1593 10.6596 10.2362C10.6018 10.2939 10.5249 10.3517 10.4479 10.4094L10.1978 10.5633L9.83219 10.2555C9.88991 10.2362 9.9284 10.2362 9.96688 10.217C10.0054 10.1977 10.0438 10.1977 10.0823 10.1593C10.1785 10.1208 10.2555 10.0631 10.3132 10.0053C10.3517 9.98609 10.3709 9.94761 10.3902 9.92837C10.4094 9.90912 10.4287 9.87064 10.4287 9.8514C10.4479 9.81292 10.4479 9.79368 10.4479 9.7552C10.4479 9.73595 10.4287 9.69747 10.3902 9.65899C10.3517 9.62051 10.294 9.60127 10.217 9.58203C10.1593 9.58203 10.0823 9.58203 9.96688 9.58203C9.83219 9.58203 9.73599 9.58203 9.71674 9.58203C9.62054 9.58203 9.52433 9.58203 9.44737 9.56279C9.37041 9.54354 9.31268 9.5243 9.25496 9.50506C9.19724 9.46658 9.15875 9.4281 9.10103 9.38962C9.04331 9.33189 9.00483 9.27417 8.98559 9.19721C8.96634 9.12024 8.9471 9.06252 8.96634 8.98555C8.98558 8.90859 9.00483 8.83163 9.04331 8.75466C9.08179 8.6777 9.13951 8.60073 9.23572 8.54301C9.25496 8.52377 9.2742 8.50453 9.29344 8.48529C9.31268 8.46605 9.35116 8.4468 9.38965 8.40832C9.42813 8.36984 9.46661 8.3506 9.52433 8.33136C9.56282 8.31212 9.6013 8.27364 9.63978 8.25439L9.98612 8.54301C9.94764 8.56225 9.9284 8.56225 9.88991 8.58149C9.85143 8.60073 9.83219 8.60073 9.79371 8.61997C9.77447 8.63922 9.73599 8.65846 9.6975 8.6777C9.65902 8.69694 9.63978 8.71618 9.6013 8.73542C9.54358 8.7739 9.50509 8.83163 9.50509 8.88935C9.48585 8.96631 9.48585 9.02404 9.52433 9.06252C9.56282 9.101 9.6013 9.12024 9.65902 9.13948C9.71675 9.15872 9.81295 9.15872 9.96688 9.15872C10.0631 9.15872 10.14 9.13948 10.217 9.13948C10.3132 9.13948 10.4094 9.13948 10.4671 9.15872C10.5249 9.17796 10.5826 9.19721 10.6403 9.21645C10.698 9.25493 10.7365 9.29341 10.7942 9.35113Z" fill="white"/>
<path d="M12.9107 8.5622L12.4681 8.85081L12.218 8.46599L11.9679 8.06193L11.2367 8.52372L11.4676 8.8893L11.7177 9.29336L11.2752 9.58197L10.7749 8.81233L10.4671 8.33131L10.1207 7.79256L10.5825 7.50394L10.8134 7.85028L11.0443 8.19662L11.7755 7.73483L11.5446 7.36925L11.3329 7.04216L11.7755 6.75354L12.2757 7.54242L12.5836 8.02345L12.9107 8.5622Z" fill="white"/>
<path d="M13.6611 8.23509L13.1801 8.44675L12.7953 7.63862L12.5644 7.11911L12.2758 6.5034L12.7568 6.29175L13.1416 7.11911L13.3917 7.63862L13.6611 8.23509Z" fill="white"/>
<path d="M15.7777 7.52315L15.1812 7.69632L14.6425 7.19605L14.3154 6.88819L13.9305 6.52261L14.1614 7.27301L14.3538 7.92721L13.9305 8.08114L13.6227 7.0806L13.3148 6.02235L13.9113 5.84918L15.1427 7.04212L14.7194 5.59904L15.162 5.46436L15.4121 6.27248L15.5853 6.84971L15.7777 7.52315Z" fill="white"/>
<path d="M18.7215 6.6381C18.7215 6.75355 18.7023 6.84975 18.683 6.92672C18.6446 7.00368 18.6061 7.08064 18.5484 7.13837C18.4714 7.21533 18.3752 7.27306 18.2405 7.31154C18.1251 7.35002 17.9711 7.36926 17.8172 7.36926C17.644 7.36926 17.5093 7.35002 17.3747 7.31154C17.2592 7.27306 17.1438 7.21533 17.0668 7.13837C17.0091 7.08064 16.9706 7.00368 16.9321 6.92672C16.8936 6.84975 16.8744 6.75355 16.8744 6.6381V6.00315V5.61833V5.17578H17.3939V5.82998V6.44569C17.3939 6.61886 17.4324 6.75355 17.4901 6.83051C17.5478 6.90748 17.6633 6.94596 17.798 6.94596C17.9326 6.94596 18.0481 6.90748 18.1058 6.81127C18.1635 6.71507 18.202 6.59962 18.202 6.42645V5.86846V5.54136V5.17578H18.7215L18.7408 5.94542L18.7215 6.6381Z" fill="white"/>
<path d="M20.8958 7.6963L20.2993 7.58085L20.0491 6.88817L19.8952 6.46487L19.722 5.98385L19.5681 6.75349L19.4527 7.42692L19.0101 7.34996L19.2025 6.33018L19.395 5.25269L20.0107 5.36813L20.5687 6.98438L20.838 5.50282L21.2806 5.57978L21.1266 6.40715L21.0112 7.00362L20.8958 7.6963Z" fill="white"/>
<path d="M21.6654 7.98498L21.1652 7.81181L21.4538 6.96521L21.6269 6.42646L21.8386 5.7915L22.3389 5.96467L22.0502 6.83052L21.8771 7.36927L21.6654 7.98498Z" fill="white"/>
<path d="M24.6477 6.98439L23.9935 7.56162L23.4355 8.06189L22.9352 8.52367L22.3965 8.27354L22.4734 7.56162L22.5504 6.86895L22.6466 6.02234L23.1276 6.25323L23.0122 7.02287L22.9545 7.46542L22.8775 7.98493L23.0699 7.81176L23.6087 7.29225L24.1667 6.7535L24.6477 6.98439Z" fill="white"/>
<path d="M24.9171 9.79359L23.705 8.92774L24.2052 8.23506L24.5131 7.81176L24.9556 7.19604L26.1678 8.06189L25.9369 8.38899L25.6483 8.17734L25.5136 8.08113L25.3597 7.96569L25.148 7.81176L24.8787 8.19658L25.5521 8.6776L25.3212 8.98546L24.9364 8.71609L24.6478 8.50444L24.3592 8.88926L25.148 9.44725L25.0326 9.60118L24.9171 9.79359Z" fill="white"/>
<path d="M26.264 11.102L25.86 10.7172C25.8792 10.698 25.9177 10.5825 25.9947 10.4093C26.0716 10.2362 26.1101 10.1207 26.1294 10.1015C26.1486 10.0438 26.2063 9.92831 26.2833 9.7359C26.3025 9.67817 26.341 9.60121 26.3602 9.54349C26.3795 9.56273 26.3987 9.58197 26.418 9.62045C26.4372 9.63969 26.4564 9.65893 26.4564 9.67817C26.5334 9.75514 26.6104 9.79362 26.7066 9.81286C26.7451 9.81286 26.8028 9.81286 26.8413 9.79362C26.8798 9.77438 26.9182 9.75514 26.9567 9.71666C27.0144 9.65893 27.0529 9.58197 27.0529 9.52425C27.0529 9.48576 27.0337 9.46652 27.0144 9.42804C26.9952 9.38956 26.976 9.37032 26.9375 9.33184L26.6873 9.10094L26.1294 9.65893L25.8023 9.98603L25.4367 10.3516L25.0903 10.0053L26.5911 8.48523L27.2646 9.15867C27.4185 9.31259 27.5147 9.48576 27.5147 9.63969C27.5147 9.77438 27.457 9.92831 27.3223 10.063C27.2068 10.1784 27.0914 10.2362 26.976 10.2362C26.8605 10.2362 26.7258 10.2169 26.5911 10.14L26.4757 10.5055C26.4564 10.544 26.4372 10.621 26.3987 10.7364C26.3795 10.7749 26.3795 10.8134 26.3602 10.8519L26.264 11.102Z" fill="white"/>
<path d="M27.5339 11.9487C27.4762 11.9872 27.4185 12.0256 27.3415 12.0449C27.2838 12.0641 27.2068 12.0641 27.1298 12.0641C27.0529 12.0449 26.9759 12.0256 26.899 11.9679C26.822 11.9102 26.745 11.8332 26.6681 11.737C26.6103 11.6601 26.5719 11.5831 26.5334 11.5061L26.3987 11.2368L26.745 10.9097C26.745 10.9674 26.7643 11.0059 26.7643 11.0443C26.7643 11.0828 26.7835 11.1213 26.8027 11.1598C26.8412 11.256 26.8797 11.333 26.9182 11.3907C26.9374 11.4292 26.9567 11.4484 26.9952 11.4676C27.0144 11.4869 27.0336 11.5061 27.0721 11.5254C27.1106 11.5446 27.1298 11.5446 27.1683 11.5446C27.1876 11.5446 27.226 11.5254 27.2645 11.5061C27.303 11.4676 27.3415 11.4292 27.3607 11.3522C27.38 11.2945 27.38 11.2175 27.3992 11.1021C27.3992 10.9674 27.4185 10.8712 27.4185 10.8519C27.4377 10.7557 27.4377 10.6595 27.4762 10.6018C27.4954 10.5248 27.5339 10.4671 27.5531 10.4094C27.5916 10.3517 27.6301 10.3132 27.6878 10.2747C27.7456 10.2362 27.8225 10.1977 27.8802 10.1785C27.9572 10.1593 28.0342 10.1593 28.0919 10.1785C28.1689 10.1977 28.2458 10.2362 28.3035 10.2747C28.3805 10.3324 28.4382 10.3901 28.496 10.4863C28.5152 10.5056 28.5344 10.5248 28.5537 10.5633C28.5729 10.5826 28.5922 10.621 28.6114 10.6595C28.6306 10.698 28.6691 10.7557 28.6884 10.7942C28.7076 10.8327 28.7268 10.8712 28.7461 10.9097L28.4382 11.2175C28.4382 11.179 28.419 11.1598 28.419 11.1213C28.419 11.0828 28.3998 11.0636 28.3805 11.0251C28.3613 11.0059 28.342 10.9674 28.3228 10.9289C28.3035 10.8904 28.2843 10.8519 28.2651 10.8327C28.2266 10.775 28.1689 10.7365 28.1304 10.7172C28.0534 10.6788 27.9957 10.698 27.9572 10.7172C27.9187 10.7365 27.8802 10.7942 27.861 10.8327C27.8418 10.8904 27.8225 10.9866 27.8225 11.1405C27.8225 11.2368 27.8225 11.3137 27.8033 11.3907C27.8033 11.4869 27.784 11.5831 27.7456 11.6408C27.7263 11.6985 27.7071 11.7563 27.6686 11.814C27.6301 11.8525 27.5724 11.9102 27.5339 11.9487Z" fill="white"/>
<path d="M27.4762 12.9299L27.2068 12.4874L27.9764 12.0256L28.4767 11.737L29.0539 11.3906L29.3233 11.8332L28.5344 12.295L28.0342 12.5836L27.4762 12.9299Z" fill="white"/>
<path d="M29.8428 13.8535L29.5927 13.3147L29.0732 13.5456L28.8615 13.6418L28.5922 13.7573L28.3228 13.8727L28.0342 14.0074L27.8225 13.5264L29.4003 12.8145L29.2656 12.5258L29.2079 12.3719L29.1694 12.2757L29.535 12.1025L30.2276 13.6611L29.8428 13.8535Z" fill="white"/>
<path d="M30.42 14.3345L29.7274 14.931L30.1892 15.0272L30.6317 15.1042L30.7087 15.3735L30.7856 15.6429L30.0737 15.4697L29.3425 15.2966L28.9 15.412L28.5344 15.5082L28.4575 15.2581L28.3805 15.008L29.2271 14.7771L29.5542 14.45L29.8043 14.2191L29.9967 14.0459L30.2661 13.7958L30.42 14.3345Z" fill="white"/>
<path d="M14.6039 28.4574C14.3345 28.0918 13.9497 27.8225 13.5071 27.6493H13.4879V27.6685C13.4687 28.0918 13.6033 28.4959 13.8727 28.8615C14.0651 29.1116 14.296 29.304 14.5654 29.4772C14.2575 29.4195 13.9304 29.4195 13.6418 29.4964C13.1993 29.6119 12.8337 29.8428 12.5836 30.1891L12.5643 30.2084H12.5836C13.0261 30.3815 13.4879 30.4008 13.9304 30.2853C14.3537 30.1891 14.7001 29.9582 14.9502 29.6311L14.9695 29.5734C14.9887 29.1886 14.8733 28.8038 14.6039 28.4574Z" fill="white"/>
<path d="M14.1036 29.3425L14.1229 29.304C14.1229 29.304 13.3725 29.0154 13.1031 28.7268L13.0839 28.7075L12.9299 29.1693H12.9684C13.334 29.0731 14.1036 29.3232 14.1036 29.3425Z" fill="white"/>
<path d="M12.8722 28.7653C12.9492 28.3997 12.8915 28.0341 12.7375 27.6878C12.5644 27.3222 12.2757 27.0143 11.8909 26.8027L11.8717 26.7834V26.8027C11.8717 26.8219 11.8524 26.8412 11.8524 26.8604C11.7755 27.2068 11.8332 27.5723 12.0064 27.9379C12.1218 28.188 12.295 28.3997 12.5259 28.5921C12.2565 28.4959 11.9871 28.4382 11.7178 28.4574C11.3137 28.4767 10.9481 28.6306 10.6595 28.8807L10.6403 28.9L10.6595 28.9192C11.0251 29.1309 11.4291 29.2463 11.8524 29.2271C12.2373 29.2078 12.5836 29.0731 12.8722 28.823C12.853 28.8038 12.8722 28.7653 12.8722 28.7653Z" fill="white"/>
<path d="M12.1411 28.3805L12.1603 28.342C12.1603 28.342 11.5446 27.9572 11.3522 27.6494L11.3329 27.6301L11.1021 28.0149H11.1405C11.4869 28.0149 12.1218 28.3805 12.1411 28.3805Z" fill="white"/>
<path d="M11.1598 27.6493C11.2944 27.3222 11.2944 26.9567 11.179 26.6103C11.0636 26.2447 10.8327 25.8984 10.5248 25.6483L10.5056 25.629L10.4863 25.6483C10.4478 25.7445 10.4286 25.8214 10.4094 25.9176C10.3516 26.1678 10.3709 26.4564 10.4478 26.7258C10.5248 26.9759 10.6595 27.2068 10.8327 27.3992C10.6018 27.2645 10.3516 27.1876 10.0823 27.1683C9.69744 27.1298 9.33186 27.2068 9.024 27.4184L9.00476 27.4377L9.024 27.4569C9.33186 27.7263 9.69744 27.8802 10.1015 27.9187C10.4671 27.9572 10.8134 27.8802 11.1213 27.6878C11.1405 27.6878 11.1598 27.6493 11.1598 27.6493Z" fill="white"/>
<path d="M9.63968 26.6872C9.96678 26.745 10.5055 27.1683 10.5248 27.1683L10.544 27.1298C10.544 27.1298 10.0245 26.6872 9.88981 26.3601L9.87057 26.3217L9.6012 26.6488L9.63968 26.6872Z" fill="white"/>
<path d="M9.62042 26.3794C9.79359 26.0908 9.85132 25.7637 9.81283 25.4174C9.75511 25.0518 9.60118 24.7054 9.35105 24.4168L9.33181 24.3976L9.31257 24.4168C9.21636 24.5708 9.15864 24.7247 9.12016 24.8978C9.08167 25.071 9.08167 25.2442 9.10092 25.4366C9.1394 25.6867 9.21636 25.9176 9.35105 26.1293C9.15864 25.9753 8.92775 25.8599 8.69685 25.7829C8.35051 25.6867 7.98494 25.7252 7.67708 25.8599L7.65784 25.8791L7.67708 25.8984C7.92721 26.187 8.25431 26.3987 8.61989 26.4949C8.96623 26.5911 9.29333 26.5718 9.60118 26.4371C9.60118 26.4179 9.62042 26.3794 9.62042 26.3794Z" fill="white"/>
<path d="M8.35054 25.2442C8.63916 25.3404 9.10094 25.8407 9.10094 25.8407L9.13942 25.8215C9.13942 25.8215 8.71612 25.3212 8.63916 25.0133V24.9749L8.3313 25.2442H8.35054Z" fill="white"/>
<path d="M8.35061 24.9363L8.38909 24.9171C8.60074 24.6862 8.73543 24.3783 8.75467 24.0512C8.77391 23.7049 8.69695 23.3393 8.52378 23.0314L8.50454 23.0122L8.48529 23.0314C8.29288 23.2239 8.17744 23.4548 8.11971 23.7241C8.10047 23.7818 8.10047 23.8588 8.10047 23.9165C8.08123 24.1474 8.11971 24.3783 8.19668 24.6092C8.04275 24.4168 7.86958 24.2629 7.65793 24.1667C7.35007 24.0127 7.00373 23.955 6.69588 24.032H6.67664L6.69588 24.0512C6.86905 24.3783 7.13842 24.6285 7.44628 24.7824C7.73489 24.9556 8.04275 24.994 8.35061 24.9363Z" fill="white"/>
<path d="M7.40771 23.5895L7.4462 23.6087C7.69633 23.7627 8.02343 24.3014 8.02343 24.3014L8.06191 24.2822C8.06191 24.2822 7.77329 23.7242 7.75405 23.4356V23.3971L7.40771 23.5895Z" fill="white"/>
<path d="M7.52322 23.3201L7.5617 23.3009C7.79259 23.1085 7.94652 22.8391 8.00424 22.5312C8.08121 22.2042 8.04272 21.8578 7.90804 21.5307L7.8888 21.5115L7.86956 21.5307C7.61942 21.7231 7.46549 21.9925 7.38853 22.3388C7.35005 22.5505 7.35005 22.7814 7.38853 22.993C7.27308 22.8006 7.11915 22.6275 6.92674 22.512C6.65737 22.3196 6.33027 22.2426 6.02241 22.2619H6.00317V22.2811C6.13786 22.6082 6.34951 22.8776 6.61889 23.07C6.92674 23.2624 7.21536 23.3394 7.52322 23.3201Z" fill="white"/>
<path d="M7.11917 21.8193L6.77283 21.954L6.79207 21.9733C7.02296 22.1464 7.25385 22.6852 7.25385 22.7044L7.29234 22.6852C7.29234 22.6852 7.08068 22.1272 7.11917 21.8386V21.8193Z" fill="white"/>
<path d="M6.86895 21.6846L6.90744 21.6654C7.13833 21.5115 7.33074 21.2806 7.42694 20.992C7.54239 20.6841 7.54239 20.357 7.46543 20.0491V20.0299L7.44619 20.0491C7.19605 20.2031 7.00364 20.434 6.88819 20.7418C6.86895 20.7995 6.84971 20.8765 6.83047 20.9535C6.81123 21.0882 6.81123 21.2229 6.81123 21.3768C6.71503 21.1844 6.59958 21.0112 6.44565 20.8573C6.21476 20.6456 5.92614 20.5302 5.63753 20.5109H5.61829V20.5302C5.69525 20.8573 5.86842 21.1266 6.09931 21.3575C6.31096 21.5307 6.58034 21.6462 6.86895 21.6846Z" fill="white"/>
<path d="M6.34949 20.28L6.36873 20.2992C6.56114 20.4916 6.69583 21.0304 6.69583 21.0496H6.73431C6.73431 21.0496 6.61886 20.4916 6.67659 20.2415V20.203L6.34949 20.28Z" fill="white"/>
<path d="M6.52271 20.0491H6.56119C6.81132 19.9337 7.00373 19.7413 7.13842 19.4911C7.27311 19.2217 7.33083 18.9139 7.29235 18.606V18.5868L7.27311 18.606C7.02297 18.7215 6.81132 18.9139 6.65739 19.1833C6.59967 19.2987 6.56119 19.4334 6.52271 19.5681C6.50346 19.6258 6.50346 19.6835 6.50346 19.7605C6.44574 19.5681 6.34954 19.3949 6.23409 19.241C6.04168 19.0101 5.79155 18.8562 5.52217 18.8177H5.50293V18.8369C5.54141 19.1448 5.65686 19.4334 5.84927 19.6643C6.02244 19.8375 6.25333 19.9914 6.52271 20.0491Z" fill="white"/>
<path d="M6.38793 19.0293L6.40717 19.0678L6.42641 19.0293C6.42641 19.01 6.5611 18.6445 6.54186 18.3943C6.54186 18.1442 6.48414 18.0095 6.34945 17.8363V17.7979L6.33021 17.8171C6.21476 17.971 6.17628 18.2596 6.19552 18.452C6.21476 18.6252 6.31097 18.8754 6.38793 19.0293Z" fill="white"/>
<path d="M21.5307 28.4574C21.8001 28.0918 22.1849 27.8225 22.6275 27.6493H22.6467V27.6685C22.6659 28.0918 22.5313 28.4959 22.2619 28.8615C22.0695 29.1116 21.8386 29.304 21.5692 29.4772C21.8771 29.4195 22.2042 29.4195 22.4928 29.4964C22.9353 29.6119 23.3009 29.8428 23.551 30.1891L23.5703 30.2084H23.551C23.1085 30.3815 22.6467 30.4008 22.2042 30.2853C21.7809 30.1891 21.4345 29.9582 21.1844 29.6311L21.1651 29.5734C21.1459 29.1886 21.2806 28.8038 21.5307 28.4574Z" fill="white"/>
<path d="M22.031 29.3425L22.0117 29.304C22.0117 29.304 22.7621 29.0154 23.0315 28.7268L23.0507 28.7075L23.2047 29.1693H23.1662C22.8198 29.0731 22.031 29.3232 22.031 29.3425Z" fill="white"/>
<path d="M23.2623 28.7653C23.1854 28.3997 23.2431 28.0341 23.397 27.6878C23.5702 27.3222 23.8588 27.0143 24.2436 26.8027L24.2629 26.7834V26.8027C24.2629 26.8219 24.2821 26.8412 24.2821 26.8604C24.3591 27.2068 24.3014 27.5723 24.1282 27.9379C24.0127 28.188 23.8396 28.3997 23.6087 28.5921C23.878 28.4959 24.1474 28.4382 24.4168 28.4574C24.8209 28.4767 25.1864 28.6306 25.4751 28.8807L25.4943 28.9L25.4751 28.9192C25.1095 29.1309 24.7054 29.2463 24.2821 29.2271C23.8973 29.2078 23.551 29.0731 23.2623 28.823C23.2816 28.8038 23.2623 28.7653 23.2623 28.7653Z" fill="white"/>
<path d="M23.9935 28.3805L23.9742 28.342C23.9742 28.342 24.59 27.9572 24.7824 27.6494L24.8016 27.6301L25.0325 28.0149H24.994C24.6477 28.0149 24.0127 28.3805 23.9935 28.3805Z" fill="white"/>
<path d="M24.9749 27.6493C24.8402 27.3222 24.8402 26.9567 24.9557 26.6103C25.0711 26.2447 25.302 25.8984 25.6099 25.6483L25.6291 25.629L25.6483 25.6483C25.6868 25.7445 25.7061 25.8214 25.7253 25.9176C25.783 26.1678 25.7638 26.4564 25.6868 26.7258C25.6099 26.9759 25.4752 27.2068 25.302 27.3992C25.5329 27.2645 25.783 27.1876 26.0524 27.1683C26.4372 27.1298 26.8028 27.2068 27.1107 27.4184L27.1299 27.4377L27.1107 27.4569C26.8028 27.7263 26.4372 27.8802 26.0332 27.9187C25.6676 27.9572 25.3212 27.8802 25.0134 27.6878C25.0134 27.6878 24.9749 27.6493 24.9749 27.6493Z" fill="white"/>
<path d="M26.4949 26.6872C26.1678 26.745 25.6291 27.1683 25.6098 27.1683L25.5906 27.1298C25.5906 27.1298 26.1101 26.6872 26.2448 26.3601L26.264 26.3217L26.5334 26.6488L26.4949 26.6872Z" fill="white"/>
<path d="M26.5141 26.3794C26.3409 26.0908 26.2832 25.7637 26.3217 25.4174C26.3794 25.0518 26.5333 24.7054 26.7835 24.4168L26.8027 24.3976L26.822 24.4168C26.9182 24.5708 26.9759 24.7247 27.0144 24.8978C27.0529 25.071 27.0529 25.2442 27.0336 25.4366C26.9951 25.6867 26.9182 25.9176 26.7835 26.1293C26.9759 25.9753 27.2068 25.8599 27.4377 25.7829C27.784 25.6867 28.1496 25.7252 28.4575 25.8599L28.4767 25.8791L28.4575 25.8984C28.2073 26.187 27.8802 26.3987 27.5146 26.4949C27.1683 26.5911 26.8412 26.5718 26.5333 26.4371C26.5526 26.4179 26.5141 26.3794 26.5141 26.3794Z" fill="white"/>
<path d="M27.784 25.2442C27.4954 25.3404 27.0336 25.8407 27.0336 25.8407L26.9951 25.8215C26.9951 25.8215 27.4184 25.3212 27.4954 25.0133V24.9749L27.8032 25.2442H27.784Z" fill="white"/>
<path d="M27.784 24.9363L27.7455 24.9171C27.5339 24.6862 27.3992 24.3783 27.38 24.0512C27.3607 23.7049 27.4377 23.3393 27.6109 23.0314L27.6301 23.0122L27.6493 23.0314C27.8417 23.2239 27.9572 23.4548 28.0149 23.7241C28.0342 23.7818 28.0342 23.8588 28.0342 23.9165C28.0534 24.1474 28.0149 24.3783 27.938 24.6092C28.0919 24.4168 28.265 24.2629 28.4767 24.1667C28.7846 24.0127 29.1309 23.955 29.4388 24.032H29.458L29.4388 24.0512C29.2656 24.3783 28.9962 24.6285 28.6884 24.7824C28.419 24.9556 28.0919 24.994 27.784 24.9363Z" fill="white"/>
<path d="M28.7268 23.5895L28.6883 23.6087C28.4382 23.7627 28.1111 24.3014 28.1111 24.3014L28.0726 24.2822C28.0726 24.2822 28.3612 23.7242 28.3805 23.4356V23.3971L28.7268 23.5895Z" fill="white"/>
<path d="M28.6114 23.3201L28.573 23.3009C28.3421 23.1085 28.1881 22.8391 28.1304 22.5312C28.0534 22.2042 28.0919 21.8578 28.2266 21.5307L28.2459 21.5115L28.2651 21.5307C28.5152 21.7231 28.6692 21.9925 28.7461 22.3388C28.7846 22.5505 28.7846 22.7814 28.7461 22.993C28.8616 22.8006 29.0155 22.6275 29.2079 22.512C29.4773 22.3196 29.8044 22.2426 30.1122 22.2619H30.1315V22.2811C29.9968 22.6082 29.7851 22.8776 29.5158 23.07C29.2079 23.2624 28.9193 23.3394 28.6114 23.3201Z" fill="white"/>
<path d="M29.0155 21.8193L29.3618 21.954L29.3426 21.9733C29.1117 22.1464 28.8808 22.6852 28.8808 22.7044L28.8423 22.6852C28.8423 22.6852 29.0539 22.1272 29.0155 21.8386V21.8193Z" fill="white"/>
<path d="M29.2849 21.6846L29.2464 21.6654C29.0155 21.5115 28.8231 21.2806 28.7269 20.992C28.6114 20.6841 28.6114 20.357 28.6884 20.0491V20.0299L28.7076 20.0491C28.9578 20.2031 29.1502 20.434 29.2656 20.7418C29.2849 20.7995 29.3041 20.8765 29.3234 20.9535C29.3426 21.0882 29.3426 21.2229 29.3426 21.3768C29.4388 21.1844 29.5542 21.0112 29.7082 20.8573C29.9391 20.6456 30.2277 20.5302 30.5163 20.5109H30.5355V20.5302C30.4586 20.8573 30.2854 21.1266 30.0545 21.3575C29.8236 21.5307 29.5543 21.6462 29.2849 21.6846Z" fill="white"/>
<path d="M29.7851 20.28L29.7658 20.2992C29.5734 20.4916 29.4388 21.0304 29.4388 21.0496H29.4003C29.4003 21.0496 29.5157 20.4916 29.458 20.2415V20.203L29.7851 20.28Z" fill="white"/>
<path d="M29.6312 20.0491H29.5927C29.3426 19.9337 29.1502 19.7413 29.0155 19.4911C28.8808 19.2217 28.8231 18.9139 28.8616 18.606V18.5868L28.8808 18.606C29.1309 18.7215 29.3426 18.9139 29.4965 19.1833C29.5542 19.2987 29.5927 19.4334 29.6312 19.5681C29.6504 19.6258 29.6504 19.6835 29.6504 19.7605C29.7082 19.5681 29.8044 19.3949 29.9198 19.241C30.1122 19.0101 30.3624 18.8562 30.6317 18.8177H30.651V18.8369C30.6125 19.1448 30.497 19.4334 30.3046 19.6643C30.1315 19.8375 29.8813 19.9914 29.6312 20.0491Z" fill="white"/>
<path d="M29.7466 19.0293L29.7274 19.0678L29.7081 19.0293C29.7081 19.0101 29.5735 18.6445 29.5927 18.3944C29.5927 18.1442 29.6504 18.0095 29.7851 17.8364L29.8044 17.8171L29.8236 17.8364C29.939 17.9903 29.9775 18.2789 29.9583 18.4713C29.9198 18.6253 29.8236 18.8754 29.7466 19.0293Z" fill="white"/>
<path d="M16.1624 28.8807V30.7664H15.8161V29.2078H15.4697L15.6237 28.9H16.1624V28.8807Z" fill="white"/>
<path d="M17.009 29.6889C16.9705 29.6312 16.932 29.5542 16.932 29.458C16.932 29.3618 16.9513 29.3041 17.009 29.2463C17.0475 29.1886 17.1244 29.1694 17.2014 29.1694C17.2784 29.1694 17.3361 29.2079 17.3938 29.2463C17.4515 29.3041 17.4708 29.381 17.4708 29.458C17.4708 29.5542 17.4515 29.6312 17.3938 29.6889C17.3361 29.7466 17.2784 29.7851 17.2014 29.7851C17.1052 29.7851 17.0475 29.7466 17.009 29.6889ZM16.8166 30.7472H17.2206L17.49 30.3046C17.6824 29.9967 17.7786 29.7081 17.7786 29.4772C17.7786 29.2848 17.7209 29.1309 17.6247 29.0155C17.5093 28.9 17.3746 28.8423 17.2014 28.8423C17.0282 28.8423 16.8743 28.9 16.7589 29.0347C16.6434 29.1501 16.5857 29.3233 16.5857 29.5157C16.5857 29.6889 16.6242 29.8236 16.7204 29.939C16.8166 30.0545 16.932 30.093 17.086 30.093C17.1437 30.093 17.2206 30.0737 17.2976 30.0352L16.8166 30.7472Z" fill="white"/>
<path d="M18.1636 30.1121C18.356 29.7658 18.4907 29.5542 18.5484 29.458C18.5869 29.381 18.6253 29.2848 18.6638 29.2271C18.6638 29.2848 18.6638 29.4002 18.6638 29.5542C18.6638 29.7081 18.6638 29.9005 18.6638 30.1121H18.1636ZM18.9332 30.1121V28.823H18.6253L17.798 30.2084V30.3815H18.6253V30.7471H18.9332V30.3815H19.1064V30.1121H18.9332Z" fill="white"/>
<path d="M20.0491 30.4586C19.9529 30.4586 19.8759 30.4008 19.8374 30.2854C19.799 30.1699 19.7797 30.016 19.7797 29.8236C19.7797 29.612 19.799 29.458 19.8567 29.3426C19.8952 29.2271 19.9721 29.1694 20.0683 29.1694C20.2607 29.1694 20.3377 29.3811 20.3377 29.8044C20.3185 30.2469 20.2223 30.4586 20.0491 30.4586ZM19.5681 29.0924C19.4526 29.2656 19.3949 29.5158 19.3949 29.8236C19.3949 30.1315 19.4526 30.3624 19.5681 30.5355C19.6835 30.7087 19.8374 30.7857 20.0299 30.7857C20.2223 30.7857 20.3762 30.6895 20.4916 30.5163C20.6071 30.3431 20.6648 30.1122 20.6648 29.8044C20.6648 29.5158 20.6071 29.2849 20.5109 29.0924C20.3954 28.9 20.2415 28.8038 20.0299 28.8038C19.8374 28.8423 19.6835 28.9193 19.5681 29.0924Z" fill="white"/>
</svg>
