<svg width="32" height="32" viewBox="0 0 32 32" fill="none" xmlns="http://www.w3.org/2000/svg">
<g clip-path="url(#clip0_310_689)">
<g clip-path="url(#clip1_310_689)">
<path d="M16.1875 24.0375C16.3772 24.5521 16.7042 25.0048 17.1332 25.3465C17.5621 25.6882 18.0765 25.9058 18.6205 25.9756C19.1644 26.0454 19.7171 25.9648 20.2184 25.7425C20.7197 25.5202 21.1506 25.1647 21.464 24.7148C21.7775 24.2648 21.9616 23.7375 21.9964 23.1902C22.0311 22.6429 21.9152 22.0965 21.6612 21.6105C21.4072 21.1244 21.0248 20.7173 20.5556 20.4334C20.0864 20.1495 19.5484 19.9996 19 20H5" stroke="white" stroke-width="2" stroke-linecap="round" stroke-linejoin="round"/>
<path d="M12.1875 7.9625C12.3772 7.44793 12.7042 6.9952 13.1332 6.6535C13.5621 6.31181 14.0765 6.09423 14.6205 6.02441C15.1644 5.9546 15.7171 6.03521 16.2184 6.25751C16.7197 6.4798 17.1506 6.83526 17.464 7.28525C17.7775 7.73524 17.9616 8.26254 17.9964 8.80984C18.0311 9.35714 17.9152 9.9035 17.6612 10.3895C17.4072 10.8756 17.0248 11.2827 16.5556 11.5666C16.0864 11.8505 15.5484 12.0004 15 12H3" stroke="white" stroke-width="2" stroke-linecap="round" stroke-linejoin="round"/>
<path d="M23.1875 11.9625C23.3772 11.4479 23.7042 10.9952 24.1332 10.6535C24.5621 10.3118 25.0765 10.0942 25.6205 10.0244C26.1644 9.9546 26.7171 10.0352 27.2184 10.2575C27.7197 10.4798 28.1506 10.8353 28.464 11.2852C28.7775 11.7352 28.9616 12.2625 28.9964 12.8098C29.0311 13.3571 28.9152 13.9035 28.6612 14.3895C28.4072 14.8756 28.0248 15.2827 27.5556 15.5666C27.0864 15.8505 26.5484 16.0004 26 16H4" stroke="white" stroke-width="2" stroke-linecap="round" stroke-linejoin="round"/>
</g>
</g>
<defs>
<clipPath id="clip0_310_689">
<rect width="32" height="32" fill="white"/>
</clipPath>
<clipPath id="clip1_310_689">
<rect width="32" height="32" fill="white"/>
</clipPath>
</defs>
</svg>
