<svg width="32" height="32" viewBox="0 0 32 32" fill="none" xmlns="http://www.w3.org/2000/svg">
<path d="M16.3386 3L16.9333 2.19603L16.3386 1.75618L15.7439 2.19603L16.3386 3ZM16.3386 3C15.7439 2.19603 15.7437 2.19622 15.7434 2.19644L15.7426 2.19703L15.7403 2.19873L15.7329 2.20424L15.7071 2.22358C15.6851 2.24016 15.6536 2.26407 15.6132 2.29513C15.5324 2.35722 15.4159 2.44791 15.269 2.56564C14.9753 2.80101 14.559 3.1449 14.0611 3.58484C13.0665 4.46351 11.739 5.73156 10.4088 7.28937C7.77837 10.37 5 14.7435 5 19.5686C5 25.4142 10.1649 30 16.3386 30C22.5123 30 27.6772 25.4142 27.6772 19.5686C27.6772 14.7435 24.8988 10.37 22.2684 7.28937C20.9382 5.73156 19.6106 4.46351 18.6161 3.58484C18.1181 3.1449 17.7019 2.80101 17.4081 2.56564C17.2612 2.44791 17.1448 2.35722 17.064 2.29513C17.0236 2.26407 16.9921 2.24016 16.9701 2.22358L16.9443 2.20424L16.9369 2.19873L16.9346 2.19703L16.9338 2.19644C16.9335 2.19622 16.9333 2.19603 16.3386 3Z" stroke="white" stroke-width="2"/>
</svg>
