<svg width="36" height="36" viewBox="0 0 36 36" fill="none" xmlns="http://www.w3.org/2000/svg">
<path d="M13.2571 7.58093C13.1801 7.58093 13.0839 7.63866 13.0647 7.81182C13.0647 7.92727 13.1032 7.96575 13.1032 8.02348C13.1032 8.0812 13.1609 8.19665 13.0647 8.25437C12.9685 8.31209 13.0262 8.94705 13.007 9.06249C12.9877 9.27414 13.1609 9.37035 13.2186 9.38959C13.2764 9.40883 13.9113 9.46655 14.1999 9.44731C14.4885 9.42807 14.6232 9.63972 14.6232 9.75517C14.604 10.0053 14.046 10.3901 13.9305 10.4863C13.6227 10.7365 13.5265 10.8712 13.6227 10.9674C13.6997 11.0636 13.8151 11.0636 13.9883 10.8712C14.0652 10.7749 14.7194 10.3324 14.8156 10.1208C14.9503 9.85138 14.8541 9.29339 14.8156 9.13946C14.7964 8.96629 14.6617 8.85084 14.4308 8.85084C14.1999 8.85084 13.6034 8.98553 13.4688 8.75464C13.3341 8.52374 13.4495 8.23513 13.4495 8.00424C13.488 7.7541 13.488 7.58093 13.2571 7.58093Z" fill="black"/>
<path d="M15.3735 8.79321C15.3158 8.81245 15.1426 8.85093 15.1619 9.17803C15.1811 9.50512 15.3351 9.56285 15.3928 9.65905C15.4697 9.75526 15.489 9.83222 15.3928 9.96691C15.2966 10.1208 15.1811 10.4672 15.2196 10.7366C15.2581 11.0059 15.412 11.0252 15.5275 11.0059C15.6429 11.0059 15.97 10.9674 15.97 10.7173C15.97 10.4479 15.8161 10.5634 15.7968 10.4287C15.7968 10.3902 15.7968 10.2555 15.8161 10.2363C15.8353 10.217 15.8738 10.1978 15.9892 10.1978C16.1239 10.1978 16.4703 10.4864 16.5472 10.6403C16.6242 10.775 16.7204 10.9482 16.8359 10.9482C16.9705 10.9482 17.1052 10.9674 17.086 10.5634C17.0667 10.1593 16.9128 10.1401 16.7974 10.0246C16.6819 9.90919 16.528 9.75526 16.7589 9.62057C16.9898 9.48588 17.2399 9.48588 17.0667 9.10106C16.8936 8.697 16.7589 8.73548 16.6242 8.73548C16.4895 8.73548 16.3163 8.7932 16.3163 9.06258C16.3163 9.25499 16.3356 9.40892 16.2779 9.4474C16.1817 9.48588 15.9892 9.48588 15.8738 9.42816C15.7584 9.37044 15.7199 9.19727 15.5659 8.88941C15.5467 8.81245 15.4505 8.77396 15.3735 8.79321Z" fill="black"/>
<path d="M17.721 8.75464C17.644 8.75464 17.5093 8.8316 17.4901 8.92781C17.4516 9.02401 17.4901 9.29339 17.5285 9.37035C17.567 9.46656 17.7017 9.46656 17.7979 9.52428C17.8941 9.56276 18.0096 9.62049 18.0096 9.88986C18.0096 10.1592 17.9903 10.9096 18.0673 11.0058C18.1443 11.102 18.1827 11.0828 18.2405 11.0828C18.2982 11.0828 18.3944 11.0058 18.3944 10.8904C18.4136 10.7172 18.3174 10.6018 18.2597 10.4671C18.202 10.3132 18.1635 9.83214 18.1635 9.60125C18.1635 9.38959 18.2597 9.08174 18.0673 8.92781C17.9518 8.81236 17.7979 8.75464 17.721 8.75464Z" fill="black"/>
<path d="M18.9139 8.81238C18.9139 8.81238 18.5483 8.85086 18.5868 9.17796C18.6253 9.48581 18.8177 9.50506 18.8562 9.54354C18.8947 9.58202 19.0678 9.63974 19.0486 9.9476C19.0294 10.2555 19.0294 10.3901 18.8562 10.5056C18.7408 10.5826 18.6638 10.7365 18.7408 10.8327C18.8562 10.9674 19.0101 11.0828 19.0871 11.0059C19.1641 10.9289 19.2218 10.621 19.2218 10.3324C19.2218 10.0438 19.241 9.56278 19.2025 9.37037C19.1641 9.15872 19.241 8.83162 18.9139 8.81238Z" fill="black"/>
<path d="M19.8182 8.90858C19.7798 8.92783 19.6643 8.96631 19.6451 9.10099C19.6066 9.23568 19.6643 9.40885 19.6836 9.48582C19.7028 9.56278 19.8182 9.71671 19.799 9.8514C19.7798 9.98608 19.6836 10.14 19.6643 10.2362C19.6451 10.3517 19.4334 10.7557 19.7028 10.9289C19.9722 11.1021 19.9145 10.8134 19.9145 10.698C19.9145 10.5826 19.8375 10.2747 20.0107 10.0246C20.1838 9.75519 20.3378 9.56278 20.6841 9.56278C21.0304 9.56278 21.2036 9.73595 21.2421 10.0438C21.2806 10.3517 21.2036 10.3901 21.0689 10.4094C20.9342 10.4286 20.357 10.3517 20.2608 10.4286C20.1646 10.5056 20.0491 10.621 20.0876 10.7942C20.1261 10.9674 20.1069 11.0251 20.28 11.0443C20.4532 11.0636 21.2613 11.0443 21.3383 11.0251C21.4153 11.0059 21.5692 10.9481 21.5307 10.5248C21.4922 10.1015 21.4922 9.69747 21.473 9.63974C21.4537 9.56278 21.3768 9.27416 21.2613 9.13948C21.1651 9.02403 21.0497 8.7739 20.8188 8.88934C20.5879 9.00479 20.5879 9.15872 20.4917 9.1972C20.3955 9.21644 20.3378 9.27416 20.1453 9.02403C20.0299 8.90858 19.8952 8.8701 19.8182 8.90858Z" fill="black"/>
<path d="M22.0118 8.85091C21.9541 8.87015 21.7809 8.96636 21.8386 9.10105C21.8964 9.23573 22.108 9.58207 22.185 9.6398C22.2427 9.71676 22.4928 10.0631 22.4544 10.217C22.4159 10.371 22.2042 10.5249 22.0503 10.6211C21.8964 10.7173 21.8002 10.8905 22.0118 10.9674C22.2235 11.0444 22.8199 10.9867 22.8777 10.9674C22.9354 10.9482 23.147 10.852 23.1278 10.6211C23.1086 10.3902 23.2048 10.3517 23.2432 10.2748C23.301 10.1401 23.4164 9.81296 23.4357 9.71676C23.4549 9.62055 23.5126 9.25497 23.4357 9.08181C23.3587 8.88939 23.2048 8.62002 22.8777 8.67774C22.6468 8.71622 22.743 9.21649 22.8007 9.29346C22.8392 9.38966 23.1855 9.56283 23.1278 9.79372C23.0701 10.0246 22.9931 10.0631 22.8584 10.0631C22.7237 10.0631 22.5121 9.83221 22.5121 9.6398C22.5121 9.44738 22.6083 9.25497 22.589 9.15877C22.5506 9.02408 22.4159 8.75471 22.0118 8.85091Z" fill="black"/>
<path d="M15.7199 13.6419L11.5446 16.0663C11.2753 16.2202 11.1213 16.4896 11.1213 16.7974V24.2245C11.1213 24.5323 11.2753 24.8017 11.5446 24.9556L17.9519 28.6884C18.2213 28.8423 18.5484 28.8423 18.7985 28.6884L25.2635 24.9556C25.5329 24.8017 25.6868 24.5323 25.6868 24.2245V16.7974C25.6868 16.4896 25.5329 16.2202 25.2635 16.0663L21.0882 13.6419C20.6841 13.411 20.1646 13.5457 19.9337 13.9498C19.8568 14.0844 19.8183 14.2384 19.8183 14.3731C19.8183 14.6617 19.9722 14.9503 20.2416 15.1042C20.2416 15.1042 23.3202 16.8744 23.9936 17.2785C23.9936 18.0673 23.9936 22.9353 23.9936 23.7242C23.3009 24.1283 19.0679 26.5719 18.3752 26.9759C17.6825 26.5719 13.488 24.1283 12.8145 23.7242C12.8145 22.9353 12.8145 18.0673 12.8145 17.2785C13.5072 16.8744 16.5666 15.1042 16.5666 15.1042C16.8359 14.9503 16.9899 14.6617 16.9899 14.3731C16.9899 14.2191 16.9514 14.0844 16.8744 13.9498C16.6435 13.5457 16.1433 13.411 15.7199 13.6419Z" fill="#3B1E87"/>
<path d="M7.21539 14.046C6.9845 14.45 7.11918 14.9695 7.52325 15.2004L9.79369 16.5088C10.1978 16.7397 10.7173 16.605 10.9482 16.2009C11.179 15.7969 11.0444 15.2774 10.6403 15.0465L8.36985 13.7381C7.96579 13.5072 7.44628 13.6419 7.21539 14.046Z" fill="#3B1E87"/>
<path d="M28.4575 13.7381L26.1871 15.0465C25.783 15.2774 25.6483 15.7969 25.8792 16.2009C26.1101 16.605 26.6296 16.7397 27.0337 16.5088L29.3041 15.2004C29.7082 14.9695 29.8429 14.45 29.612 14.046C29.4003 13.6419 28.8808 13.5072 28.4575 13.7381Z" fill="#3B1E87"/>
<path d="M25.9947 13.488C25.9947 14.1037 25.4944 14.6232 24.8595 14.6232C24.2245 14.6232 23.7242 14.123 23.7242 13.488C23.7242 12.8723 24.2245 12.3528 24.8595 12.3528C25.4752 12.372 25.9947 12.8723 25.9947 13.488Z" fill="#3B1E87"/>
<path d="M13.1032 13.488C13.1032 14.1037 12.6029 14.6232 11.968 14.6232C11.3523 14.6232 10.8328 14.123 10.8328 13.488C10.8328 12.8723 11.333 12.3528 11.968 12.3528C12.6029 12.372 13.1032 12.8723 13.1032 13.488Z" fill="#3B1E87"/>
<path d="M19.5489 17.317C19.5489 17.9327 19.0486 18.4522 18.4137 18.4522C17.7979 18.4522 17.2784 17.9519 17.2784 17.317C17.2784 16.7013 17.7787 16.1818 18.4137 16.1818C19.0294 16.1818 19.5489 16.7013 19.5489 17.317Z" fill="#3B1E87"/>
<path d="M13.5073 17.7017C13.2764 18.1058 13.4111 18.6253 13.8151 18.8562L16.2395 20.2608C16.6436 20.4917 17.1631 20.357 17.394 19.9529C17.6248 19.5489 17.4902 19.0294 17.0861 18.7985L14.6617 17.3939C14.2769 17.1437 13.7574 17.2977 13.5073 17.7017Z" fill="#3B1E87"/>
<path d="M22.1464 17.3939L19.1448 19.1448C17.8749 19.8375 17.5863 20.3377 17.5863 21.7231V25.3597C17.5863 25.8214 17.9711 26.2063 18.4329 26.2063C18.8947 26.2063 19.2795 25.8214 19.2795 25.3597V21.7231C19.2795 20.9919 19.2795 20.9919 19.9722 20.6071L22.993 18.8562C23.3971 18.6253 23.5318 18.1058 23.3009 17.7017C23.07 17.2977 22.5505 17.1437 22.1464 17.3939Z" fill="#3B1E87"/>
<path d="M5.84926 13.3148L5.67609 13.9305L5.15658 13.7766L4.59859 13.6226L4.30997 14.6232L4.82948 14.7771L5.38747 14.931L5.19506 15.5467L4.11756 15.2389L3.44413 15.0465L2.69373 14.8348L2.86689 14.2191L3.34792 14.3538L3.82895 14.4885L4.11756 13.4687L3.6173 13.334L3.15551 13.1993L3.32868 12.5836L4.42542 12.8915L5.09886 13.0839L5.84926 13.3148Z" fill="black"/>
<path d="M5.17585 11.7178L4.61786 11.0828L4.59862 11.0636L5.44523 11.179L5.17585 11.7178ZM6.00322 10.6787L5.31054 10.6018C5.02193 10.5633 4.84876 10.5441 4.82952 10.5441C4.61786 10.5248 4.4447 10.4863 4.34849 10.4863L3.98291 11.1598L4.48318 11.7562L5.1951 12.6028L5.79157 13.334L6.09943 12.7183L5.50295 12.0641L5.90701 11.2752L6.38804 11.3329L6.77286 11.3907L7.08072 10.7942L6.00322 10.6787Z" fill="black"/>
<path d="M8.54308 9.0048L8.0813 9.60127L7.19621 9.46658L6.65746 9.38962L6.02251 9.29341L6.77291 9.88989L7.4271 10.4094L7.08076 10.8519L6.08023 10.0631L5.02197 9.23569L5.503 8.63922L7.58103 8.96632L6.13795 7.83109L6.48429 7.38855L7.29242 8.0235L7.86965 8.48529L8.54308 9.0048Z" fill="black"/>
<path d="M9.48589 7.27311C9.54361 7.33084 9.58209 7.4078 9.62057 7.48476C9.65906 7.56173 9.65906 7.65793 9.65906 7.75414C9.65906 7.85034 9.62057 7.94655 9.56285 8.062C9.50513 8.1582 9.42816 8.27365 9.31272 8.36985C9.23575 8.44682 9.13955 8.50454 9.06258 8.56226L8.75473 8.75467L8.31218 8.38909C8.36991 8.36985 8.42763 8.35061 8.46611 8.35061C8.50459 8.33137 8.56232 8.31213 8.6008 8.29289C8.71625 8.23516 8.79321 8.17744 8.87017 8.11972C8.90866 8.08124 8.9279 8.062 8.94714 8.02351C8.96638 8.00427 8.98562 7.96579 9.00486 7.92731C9.0241 7.88883 9.0241 7.85034 9.0241 7.81186C9.0241 7.77338 9.00486 7.7349 8.96638 7.69642C8.9279 7.65793 8.85093 7.61945 8.75473 7.60021C8.67776 7.60021 8.58156 7.58097 8.44687 7.60021C8.2737 7.60021 8.1775 7.60021 8.13901 7.60021C8.02357 7.60021 7.90812 7.60021 7.81192 7.58097C7.71571 7.56173 7.63875 7.54249 7.58102 7.50401C7.5233 7.46552 7.44634 7.42704 7.38861 7.35008C7.33089 7.27311 7.27317 7.19615 7.25393 7.11918C7.21544 7.04222 7.21544 6.94601 7.23468 6.84981C7.25393 6.7536 7.27317 6.6574 7.33089 6.58044C7.38861 6.48423 7.46558 6.40727 7.56178 6.31106C7.58102 6.29182 7.61951 6.27258 7.63875 6.2341C7.65799 6.21486 7.69647 6.17637 7.75419 6.13789C7.81192 6.09941 7.8504 6.06093 7.90812 6.04169C7.96584 6.0032 8.00433 5.98396 8.04281 5.96472L8.44687 6.31106C8.40839 6.3303 8.36991 6.3303 8.33142 6.34954C8.29294 6.36878 8.25446 6.38802 8.21598 6.40727C8.1775 6.42651 8.13901 6.44575 8.10053 6.48423C8.06205 6.52271 8.02357 6.54195 7.98509 6.56119C7.92736 6.61892 7.86964 6.67664 7.8504 6.7536C7.83116 6.84981 7.83116 6.90753 7.88888 6.96526C7.92736 7.00374 7.98509 7.04222 8.04281 7.06146C8.11977 7.0807 8.23522 7.0807 8.40839 7.0807C8.52383 7.06146 8.62004 7.06146 8.71624 7.06146C8.83169 7.06146 8.94714 7.06146 9.0241 7.0807C9.10107 7.09994 9.17803 7.11918 9.23575 7.15767C9.37044 7.17691 9.42816 7.21539 9.48589 7.27311Z" fill="black"/>
<path d="M12.0641 6.31103L11.5253 6.65737L11.2367 6.19559L10.9289 5.71456L10.0438 6.29179L10.3324 6.73434L10.6402 7.21536L10.1015 7.5617L9.48578 6.61889L9.10096 6.02242L8.6969 5.38746L9.23565 5.04112L9.50502 5.46443L9.7744 5.88773L10.6595 5.3105L10.3709 4.86795L10.1015 4.46389L10.6402 4.11755L11.256 5.07961L11.6408 5.65684L12.0641 6.31103Z" fill="black"/>
<path d="M12.9877 5.9263L12.4105 6.19567L11.9487 5.19514L11.6601 4.56018L11.3137 3.80978L11.891 3.54041L12.3527 4.56018L12.6414 5.19514L12.9877 5.9263Z" fill="black"/>
<path d="M15.566 5.04118L14.8541 5.25283L14.1999 4.63712L13.8151 4.27154L13.3341 3.84823L13.6034 4.7718L13.8343 5.56069L13.2956 5.71461L12.93 4.50243L12.5452 3.21328L13.2763 3.00163L14.7771 4.46395L14.2576 2.71301L14.7964 2.55908L15.085 3.54038L15.2966 4.25229L15.566 5.04118Z" fill="black"/>
<path d="M19.1641 3.98295C19.1641 4.11763 19.1448 4.23308 19.1064 4.32928C19.0679 4.42549 19.0101 4.52169 18.9332 4.59866C18.837 4.69486 18.7215 4.77183 18.5676 4.81031C18.4137 4.84879 18.2405 4.88727 18.0481 4.88727C17.8364 4.88727 17.6633 4.86803 17.5093 4.82955C17.3554 4.79107 17.24 4.7141 17.1245 4.6179C17.0476 4.54094 16.9898 4.46397 16.9514 4.36777C16.9129 4.27156 16.8936 4.15611 16.8936 4.02143L16.8744 3.25179V2.77076V2.23201H17.5093L17.5286 3.02089L17.5478 3.77129C17.5478 3.98294 17.5863 4.13687 17.6825 4.25232C17.7595 4.34852 17.8942 4.40625 18.0673 4.40625C18.2405 4.40625 18.3752 4.34852 18.4329 4.23308C18.5099 4.11763 18.5484 3.9637 18.5484 3.77129V3.07862V2.67455V2.21277H19.1833L19.2026 3.13634L19.1641 3.98295Z" fill="black"/>
<path d="M21.8193 5.25275L21.0881 5.11806L20.7803 4.27145L20.6071 3.77119L20.3955 3.17471L20.2223 4.11753L20.0684 4.94489L19.5104 4.84869L19.7413 3.59802L19.9722 2.27039L20.7226 2.40507L21.396 4.3869L21.7231 2.57824L22.2811 2.67445L22.0887 3.69422L21.954 4.42538L21.8193 5.25275Z" fill="black"/>
<path d="M22.7621 5.59919L22.1656 5.40678L22.512 4.36776L22.7236 3.71357L22.9738 2.92468L23.5702 3.11709L23.2239 4.17535L23.0123 4.82955L22.7621 5.59919Z" fill="black"/>
<path d="M26.3987 4.38696L25.5906 5.09888L24.9171 5.71459L24.3014 6.27258L23.6472 5.96473L23.7434 5.09888L23.8396 4.25227L23.9551 3.21326L24.5515 3.50187L24.4169 4.44468L24.3399 5.00267L24.2437 5.63763L24.4746 5.42598L25.1288 4.79102L25.8022 4.11759L26.3987 4.38696Z" fill="black"/>
<path d="M26.7258 7.83114L25.2443 6.77289L25.86 5.92628L26.2448 5.40677L26.7643 4.65637L28.2459 5.71463L27.9573 6.11869L27.6109 5.86856L27.4377 5.75311L27.2453 5.61842L26.9952 5.44525L26.6681 5.90704L27.4955 6.50351L27.2261 6.88833L26.7643 6.56124L26.3987 6.29186L26.0524 6.77289L27.0144 7.46556L26.8798 7.65798L26.7258 7.83114Z" fill="black"/>
<path d="M28.3613 9.42805L27.8802 8.94703C27.8995 8.90854 27.9572 8.7931 28.0534 8.56221C28.1496 8.35055 28.2073 8.21587 28.2266 8.17738C28.2458 8.11966 28.3228 7.96573 28.3997 7.73484C28.4382 7.65788 28.4575 7.58091 28.4959 7.48471C28.5152 7.50395 28.5344 7.54243 28.5537 7.56167C28.5729 7.60015 28.5922 7.61939 28.6114 7.63864C28.7076 7.73484 28.8038 7.79256 28.9 7.8118C28.9577 7.8118 29.0155 7.8118 29.0539 7.79256C29.1117 7.77332 29.1501 7.73484 29.2079 7.69636C29.2848 7.61939 29.3233 7.54243 29.3233 7.46547C29.3233 7.42698 29.3041 7.3885 29.2848 7.35002C29.2656 7.31154 29.2271 7.27305 29.1886 7.23457L28.9 6.94596L28.2266 7.61939L27.8225 8.02346L27.38 8.466L26.9567 8.0427L28.8038 6.19556L29.6312 7.02292C29.8236 7.21533 29.9198 7.40774 29.939 7.60015C29.939 7.77332 29.8621 7.94649 29.7081 8.10042C29.5734 8.23511 29.4388 8.31207 29.2848 8.31207C29.1501 8.33131 28.9962 8.29283 28.823 8.19663L28.6691 8.63917C28.6499 8.69689 28.6114 8.77386 28.5729 8.90854C28.5537 8.96627 28.5344 9.00475 28.5152 9.06247L28.3613 9.42805Z" fill="black"/>
<path d="M29.9006 10.4286C29.8236 10.4863 29.7466 10.5248 29.6697 10.5441C29.5927 10.5633 29.4965 10.5825 29.4003 10.5633C29.3041 10.5441 29.2079 10.5056 29.1117 10.4479C29.0155 10.3901 28.9193 10.2939 28.8231 10.1592C28.7653 10.0823 28.7076 9.98607 28.6499 9.88986L28.496 9.56277L28.9193 9.1587C28.9193 9.21643 28.9385 9.27415 28.9578 9.31263C28.977 9.35112 28.977 9.40884 28.9962 9.46656C29.0347 9.58201 29.0924 9.67821 29.1502 9.75518C29.1886 9.79366 29.2079 9.83214 29.2271 9.85138C29.2464 9.87062 29.2849 9.88986 29.3233 9.90911C29.3618 9.92835 29.4003 9.92835 29.4388 9.92835C29.4773 9.92835 29.5157 9.90911 29.5542 9.87062C29.612 9.83214 29.6312 9.77442 29.6697 9.67821C29.6889 9.60125 29.6889 9.50504 29.7082 9.37036C29.7274 9.19719 29.7274 9.10098 29.7274 9.0625C29.7466 8.94705 29.7659 8.83161 29.7851 8.75464C29.8044 8.65844 29.8428 8.60071 29.8813 8.52375C29.9198 8.46603 29.9775 8.4083 30.0353 8.35058C30.1122 8.29286 30.1892 8.25437 30.2854 8.23513C30.3816 8.21589 30.4586 8.21589 30.5548 8.23513C30.651 8.25437 30.7279 8.29286 30.8241 8.35058C30.9011 8.4083 30.9973 8.50451 31.0743 8.60071C31.0935 8.61996 31.1128 8.65844 31.132 8.67768C31.1512 8.69692 31.1705 8.7354 31.209 8.79312C31.2474 8.85085 31.2667 8.90857 31.3052 8.96629C31.3244 9.02402 31.3629 9.0625 31.3821 9.12022L30.9973 9.4858C30.9973 9.44732 30.9781 9.40884 30.9588 9.37036C30.9396 9.33187 30.9396 9.29339 30.9203 9.23567C30.9011 9.19719 30.8819 9.1587 30.8626 9.12022C30.8434 9.0625 30.8049 9.02402 30.7857 9.00478C30.7279 8.92781 30.6702 8.88933 30.6125 8.85085C30.5355 8.81237 30.4586 8.81237 30.4008 8.87009C30.3624 8.90857 30.3239 8.94705 30.2854 9.02402C30.2661 9.08174 30.2469 9.21643 30.2277 9.3896C30.2277 9.50504 30.2277 9.60125 30.2084 9.69745C30.1892 9.8129 30.1699 9.92835 30.1507 10.0053C30.1315 10.0823 30.093 10.14 30.0545 10.217C30.016 10.3324 29.9775 10.3901 29.9006 10.4286Z" fill="black"/>
<path d="M29.8621 11.6408L29.535 11.102L30.4778 10.5441L31.0743 10.1977L31.7862 9.77441L32.1133 10.3132L31.1513 10.8712L30.5548 11.2175L29.8621 11.6408Z" fill="black"/>
<path d="M32.729 12.7761L32.4404 12.1027L31.8055 12.3913L31.5361 12.5067L31.1898 12.6607L30.8627 12.8146L30.4971 12.9685L30.2469 12.3913L32.1711 11.5254L32.0171 11.1599L31.9402 10.9867L31.8824 10.8712L32.325 10.6788L33.1716 12.5837L32.729 12.7761Z" fill="black"/>
<path d="M33.4217 13.3725L32.5944 14.0844L33.1523 14.1999L33.6719 14.2961L33.7681 14.6232L33.8643 14.9503L32.9984 14.7386L32.1133 14.5269L31.5746 14.6809L31.1128 14.8156L31.0358 14.5077L30.9589 14.1999L31.9979 13.9112L32.4019 13.5072L32.6906 13.2186L32.9215 12.9877L33.2485 12.6798L33.4217 13.3725Z" fill="black"/>
<path d="M14.1422 30.574C13.8151 30.1315 13.3533 29.7851 12.8146 29.5927L12.7761 29.5735V29.612C12.7569 30.1315 12.9108 30.6317 13.2379 31.0743C13.4688 31.3821 13.7574 31.613 14.0845 31.8054C13.6997 31.7477 13.3148 31.7477 12.9493 31.8439C12.4105 31.9786 11.968 32.2672 11.6601 32.6713L11.6409 32.6905L11.6794 32.7098C12.2181 32.9022 12.7953 32.9407 13.3341 32.806C13.8343 32.6713 14.2769 32.4019 14.5847 32.0171L14.604 31.9594C14.6232 31.4784 14.4501 30.9973 14.1422 30.574Z" fill="black"/>
<path d="M13.5457 31.6515L13.565 31.613C13.565 31.613 12.6414 31.2667 12.3143 30.9011L12.2951 30.8818L12.1027 31.4398H12.1411C12.5837 31.3244 13.5265 31.6515 13.5457 31.6515Z" fill="black"/>
<path d="M12.0256 30.9589C12.1218 30.5163 12.0641 30.0545 11.8525 29.6312C11.6408 29.1887 11.2752 28.8039 10.8327 28.5345L10.8135 28.5153V28.5537C10.8135 28.573 10.7942 28.6115 10.7942 28.6307C10.698 29.054 10.775 29.4966 10.9674 29.9391C11.1213 30.247 11.333 30.4971 11.5831 30.728C11.256 30.6125 10.9289 30.5548 10.5826 30.5741C10.0823 30.6125 9.63975 30.7857 9.29341 31.0936L9.27417 31.1128L9.29341 31.132C9.73595 31.4014 10.2362 31.5169 10.7365 31.4976C11.2175 31.4591 11.6408 31.3052 11.9679 31.0166C12.0064 31.0166 12.0256 30.9781 12.0256 30.9589Z" fill="black"/>
<path d="M11.1406 30.4971L11.1598 30.4586C11.1598 30.4586 10.4094 29.9968 10.1785 29.6313L10.1593 29.5928L9.88989 30.0546H9.92837C10.3324 30.0546 11.1213 30.4971 11.1406 30.4971Z" fill="black"/>
<path d="M9.92835 29.612C10.0823 29.208 10.1015 28.7654 9.96683 28.3421C9.83215 27.8803 9.54353 27.4763 9.15871 27.1684L9.13947 27.1492L9.12023 27.1877C9.08175 27.3031 9.04326 27.3993 9.02402 27.5147C8.9663 27.8226 8.98554 28.1689 9.08175 28.496C9.17795 28.8039 9.33188 29.0733 9.54353 29.3234C9.25492 29.1695 8.94706 29.054 8.6392 29.0348C8.15818 28.9963 7.71563 29.0925 7.35005 29.3426L7.33081 29.3619L7.35005 29.3811C7.73487 29.689 8.17742 29.8814 8.65844 29.9391C9.10099 29.9776 9.52429 29.8814 9.88987 29.6697C9.90911 29.6505 9.92835 29.612 9.92835 29.612Z" fill="black"/>
<path d="M8.10049 28.4382C8.48531 28.496 9.15875 29.0347 9.17799 29.0347L9.21647 28.9962C9.21647 28.9962 8.58152 28.4382 8.40835 28.0727L8.38911 28.0342L8.06201 28.4382H8.10049Z" fill="black"/>
<path d="M8.06199 28.0535C8.27364 27.7071 8.35061 27.2838 8.29288 26.8605C8.23516 26.418 8.04275 25.9947 7.71565 25.6291L7.69641 25.6099L7.67717 25.6291C7.56172 25.8023 7.48476 25.9947 7.44628 26.2063C7.4078 26.418 7.38855 26.6296 7.42704 26.8605C7.46552 27.1684 7.58097 27.4378 7.73489 27.7071C7.48476 27.5147 7.21539 27.3608 6.92677 27.2838C6.48423 27.1684 6.04168 27.2069 5.6761 27.38L5.65686 27.3993L5.6761 27.4185C5.98396 27.7649 6.36878 28.015 6.81132 28.1497C7.21539 28.2651 7.63869 28.2266 8.00427 28.0727C8.02351 28.092 8.06199 28.0535 8.06199 28.0535Z" fill="black"/>
<path d="M6.52274 26.6873C6.88832 26.8027 7.42706 27.3992 7.42706 27.4184L7.46555 27.38C7.46555 27.38 6.94604 26.7642 6.84983 26.3794V26.3409L6.48425 26.668L6.52274 26.6873Z" fill="black"/>
<path d="M6.52266 26.3025L6.58038 26.2832C6.83052 25.9946 6.98444 25.6291 7.02293 25.225C7.06141 24.8017 6.9652 24.3591 6.73431 23.9743L6.71507 23.9551L6.69583 23.9743C6.46494 24.2052 6.31101 24.4938 6.25328 24.8209C6.23404 24.8979 6.23404 24.9749 6.2148 25.0518C6.19556 25.3404 6.23404 25.6098 6.33025 25.8984C6.13784 25.6675 5.92619 25.4751 5.67605 25.3597C5.29123 25.1673 4.88717 25.1095 4.50235 25.1865H4.46387L4.48311 25.2057C4.69476 25.5906 5.02186 25.9177 5.40668 26.1101C5.75302 26.3025 6.13784 26.3602 6.52266 26.3025Z" fill="black"/>
<path d="M5.36829 24.667L5.40677 24.6863C5.71463 24.8595 6.09945 25.5329 6.09945 25.5329L6.13793 25.5137C6.13793 25.5137 5.77235 24.8402 5.77235 24.4746V24.4362L5.36829 24.667Z" fill="black"/>
<path d="M5.50299 24.3399L5.56072 24.3207C5.83009 24.0898 6.0225 23.7627 6.09947 23.3779C6.17643 22.9738 6.13795 22.5505 5.98402 22.1657L5.96478 22.1272L5.94554 22.1464C5.65692 22.3773 5.44527 22.7237 5.36831 23.1277C5.31058 23.3971 5.32982 23.6665 5.38755 23.9359C5.23362 23.705 5.06045 23.4933 4.82956 23.3586C4.48322 23.1277 4.11764 23.0315 3.73282 23.07H3.69434L3.71358 23.1085C3.86751 23.4933 4.13688 23.8397 4.46398 24.0705C4.77183 24.2437 5.13741 24.3592 5.50299 24.3399Z" fill="black"/>
<path d="M5.02194 22.4735L4.59863 22.6467L4.63712 22.6659C4.90649 22.8776 5.19511 23.551 5.19511 23.551L5.23359 23.5318C5.23359 23.5318 4.98345 22.8583 5.00269 22.512L5.02194 22.4735Z" fill="black"/>
<path d="M4.69485 22.3196L4.75257 22.3004C5.04119 22.108 5.27208 21.8386 5.38753 21.4923C5.52221 21.1267 5.54145 20.7226 5.42601 20.3378V20.2993L5.40677 20.3186C5.09891 20.4917 4.86802 20.7996 4.73333 21.1652C4.69485 21.2421 4.67561 21.3383 4.65637 21.4153C4.61788 21.5885 4.61788 21.7616 4.63712 21.9348C4.52168 21.7039 4.38699 21.473 4.19458 21.2999C3.90596 21.0305 3.55963 20.8958 3.21329 20.8765H3.1748V20.915C3.27101 21.2999 3.46342 21.6462 3.75204 21.9156C4.02141 22.1465 4.34851 22.2811 4.69485 22.3196Z" fill="black"/>
<path d="M4.0791 20.6071L4.09834 20.6456C4.32923 20.8765 4.5024 21.55 4.5024 21.55L4.54089 21.5307C4.54089 21.5307 4.38696 20.8573 4.46392 20.5302L4.48316 20.4917L4.0791 20.6071Z" fill="black"/>
<path d="M4.27154 20.3185H4.32927C4.63712 20.1839 4.86801 19.9337 5.02194 19.6259C5.19511 19.2988 5.25284 18.914 5.21435 18.5484V18.5099L5.19511 18.5291C4.88726 18.6638 4.61788 18.914 4.44471 19.241C4.36775 19.395 4.31002 19.5489 4.29078 19.7028C4.27154 19.7798 4.27154 19.8568 4.27154 19.9337C4.19458 19.7028 4.09837 19.4912 3.94444 19.2988C3.71355 19.0102 3.40569 18.837 3.05936 18.7793H3.02087V18.8177C3.05936 19.2026 3.21328 19.5489 3.44418 19.8375C3.65583 20.0684 3.94444 20.2608 4.27154 20.3185Z" fill="black"/>
<path d="M4.1176 19.0679L4.13684 19.1063L4.15608 19.0486C4.15608 19.0294 4.31001 18.5676 4.31001 18.279C4.31001 17.9711 4.25228 17.798 4.07911 17.6055L4.05987 17.5863L4.04063 17.6248C3.90594 17.8172 3.84822 18.1828 3.8867 18.3944C3.92519 18.6061 4.02139 18.8947 4.1176 19.0679Z" fill="black"/>
<path d="M22.589 30.574C22.9161 30.1315 23.3779 29.7851 23.9166 29.5927L23.9551 29.5735V29.612C23.9936 30.1315 23.8204 30.6317 23.4933 31.0743C23.2624 31.3821 22.9738 31.613 22.6467 31.8054C23.0315 31.7477 23.4163 31.7477 23.7819 31.8439C24.3207 31.9786 24.7632 32.2672 25.0711 32.6713L25.0903 32.6905L25.0518 32.7098C24.5131 32.9022 23.9359 32.9407 23.3971 32.806C22.8968 32.6713 22.4543 32.4019 22.1464 32.0171L22.1272 31.9594C22.1272 31.4784 22.2811 30.9973 22.589 30.574Z" fill="black"/>
<path d="M23.2047 31.6515L23.1854 31.613C23.1854 31.613 24.109 31.2667 24.4361 30.9011L24.4553 30.8818L24.6477 31.4398H24.6093C24.1475 31.3244 23.2047 31.6515 23.2047 31.6515Z" fill="black"/>
<path d="M24.7055 30.9589C24.6093 30.5163 24.667 30.0545 24.8787 29.6312C25.0903 29.1887 25.4559 28.8039 25.8984 28.5345L25.9177 28.5153V28.5537C25.9177 28.573 25.9369 28.6115 25.9369 28.6307C26.0331 29.054 25.9562 29.4966 25.7638 29.9391C25.6098 30.247 25.3982 30.4971 25.148 30.728C25.4751 30.6125 25.8022 30.5548 26.1486 30.5741C26.6488 30.6125 27.0914 30.7857 27.4377 31.0936L27.457 31.1128L27.4377 31.132C26.9952 31.4014 26.4949 31.5169 25.9946 31.4976C25.5136 31.4591 25.0903 31.3052 24.7632 31.0166C24.744 31.0166 24.7055 30.9781 24.7055 30.9589Z" fill="black"/>
<path d="M25.6098 30.4971L25.5906 30.4586C25.5906 30.4586 26.341 29.9968 26.5719 29.6313L26.5911 29.5928L26.8605 30.0546H26.822C26.3987 30.0546 25.6098 30.4971 25.6098 30.4971Z" fill="black"/>
<path d="M26.8027 29.612C26.6488 29.208 26.6296 28.7654 26.7643 28.3421C26.899 27.8803 27.1876 27.4763 27.5724 27.1684L27.5916 27.1492L27.6109 27.1877C27.6494 27.3031 27.6878 27.3993 27.7071 27.5147C27.7648 27.8226 27.7456 28.1689 27.6494 28.496C27.5531 28.8039 27.3992 29.0733 27.1876 29.3234C27.4762 29.1695 27.784 29.054 28.0919 29.0348C28.5729 28.9963 29.0155 29.0925 29.381 29.3426L29.4003 29.3619L29.381 29.3811C28.9962 29.689 28.5537 29.8814 28.0727 29.9391C27.6301 29.9776 27.2068 29.8814 26.8412 29.6697C26.8412 29.6505 26.8027 29.612 26.8027 29.612Z" fill="black"/>
<path d="M28.6499 28.4382C28.2651 28.496 27.5917 29.0347 27.5724 29.0347L27.5339 28.9962C27.5339 28.9962 28.1689 28.4382 28.3421 28.0727L28.3613 28.0342L28.6884 28.4382H28.6499Z" fill="black"/>
<path d="M28.6691 28.0535C28.4575 27.7071 28.3805 27.2838 28.4382 26.8605C28.496 26.418 28.6884 25.9947 29.0155 25.6291L29.0347 25.6099L29.0539 25.6291C29.1694 25.8023 29.2464 25.9947 29.2848 26.2063C29.3233 26.418 29.3426 26.6296 29.3041 26.8605C29.2656 27.1684 29.1501 27.4378 28.9962 27.7071C29.2464 27.5147 29.5157 27.3608 29.8043 27.2838C30.2276 27.1684 30.6894 27.2069 31.055 27.38L31.0743 27.3993L31.055 27.4185C30.7472 27.7649 30.3623 28.015 29.9198 28.1497C29.4965 28.2651 29.0924 28.2266 28.7268 28.0727C28.7076 28.092 28.6691 28.0535 28.6691 28.0535Z" fill="black"/>
<path d="M30.2277 26.6873C29.8621 26.8027 29.3234 27.3992 29.3234 27.4184L29.2849 27.38C29.2849 27.38 29.8044 26.7642 29.9006 26.3794V26.3409L30.2662 26.668L30.2277 26.6873Z" fill="black"/>
<path d="M30.2276 26.3025L30.1699 26.2832C29.9198 25.9946 29.7658 25.6291 29.7274 25.225C29.6889 24.8017 29.7851 24.3591 30.016 23.9743L30.0352 23.9551L30.0545 23.9743C30.2854 24.2052 30.4393 24.4938 30.497 24.8209C30.5162 24.8979 30.5162 24.9749 30.5355 25.0518C30.5547 25.3404 30.5162 25.6098 30.42 25.8984C30.6125 25.6675 30.8241 25.4751 31.0742 25.3597C31.4591 25.1673 31.8631 25.1095 32.2479 25.1865H32.2864L32.2672 25.2057C32.0555 25.5906 31.7284 25.9177 31.3436 26.1101C30.9973 26.3025 30.5932 26.3602 30.2276 26.3025Z" fill="black"/>
<path d="M31.3822 24.667L31.3437 24.6863C31.0358 24.8595 30.651 25.5329 30.651 25.5329L30.6125 25.5137C30.6125 25.5137 30.9781 24.8402 30.9781 24.4746V24.4362L31.3822 24.667Z" fill="black"/>
<path d="M31.2475 24.3399L31.1898 24.3207C30.9204 24.0898 30.728 23.7627 30.651 23.3779C30.5741 22.9738 30.6125 22.5505 30.7665 22.1657L30.7857 22.1272L30.805 22.1464C31.0936 22.3773 31.3052 22.7237 31.3822 23.1277C31.4399 23.3971 31.4207 23.6665 31.3629 23.9359C31.5169 23.705 31.69 23.4933 31.9209 23.3586C32.2673 23.1277 32.6329 23.0315 33.0177 23.07H33.0562L33.0369 23.1085C32.883 23.4933 32.6136 23.8397 32.2865 24.0705C31.9594 24.2437 31.6131 24.3592 31.2475 24.3399Z" fill="black"/>
<path d="M31.7285 22.4735L32.1518 22.6467L32.1133 22.6659C31.8439 22.8776 31.5553 23.551 31.5553 23.551L31.5168 23.5318C31.5168 23.5318 31.767 22.8583 31.7477 22.512L31.7285 22.4735Z" fill="black"/>
<path d="M32.0363 22.3196L31.9786 22.3004C31.69 22.108 31.4591 21.8386 31.3437 21.4923C31.209 21.1267 31.1897 20.7226 31.3052 20.3378V20.2993L31.3244 20.3186C31.6323 20.4917 31.8632 20.7996 31.9979 21.1652C32.0171 21.2421 32.0556 21.3383 32.0748 21.4153C32.1133 21.5885 32.1133 21.7616 32.0941 21.9348C32.2095 21.7039 32.3442 21.473 32.5366 21.2999C32.8252 21.0305 33.1716 20.8958 33.5179 20.8765H33.5564V20.915C33.4602 21.2999 33.2678 21.6462 32.9791 21.9156C32.7098 22.1465 32.3827 22.2811 32.0363 22.3196Z" fill="black"/>
<path d="M32.6713 20.6071L32.652 20.6456C32.4211 20.8765 32.248 21.55 32.248 21.55L32.2095 21.5307C32.2095 21.5307 32.3634 20.8573 32.2864 20.5302L32.2672 20.4917L32.6713 20.6071Z" fill="black"/>
<path d="M32.4596 20.3185H32.4211C32.1133 20.1839 31.8824 19.9337 31.7285 19.6259C31.5553 19.2988 31.4976 18.914 31.5361 18.5484V18.5099L31.5745 18.5291C31.8824 18.6638 32.1518 18.914 32.3249 19.241C32.4019 19.395 32.4596 19.5489 32.4789 19.7028C32.4981 19.7798 32.4981 19.8568 32.4981 19.9337C32.5751 19.7028 32.6713 19.4912 32.8252 19.2988C33.0561 19.0102 33.364 18.837 33.7103 18.7793H33.7488V18.8177C33.7103 19.2026 33.5564 19.5489 33.3255 19.8375C33.0753 20.0684 32.7867 20.2608 32.4596 20.3185Z" fill="black"/>
<path d="M32.6136 19.0679L32.5943 19.1063L32.5751 19.0486C32.5751 19.0294 32.4211 18.5676 32.4211 18.279C32.4211 17.9711 32.4789 17.798 32.652 17.6055L32.6713 17.5863L32.6905 17.6055C32.8252 17.798 32.8829 18.1635 32.8444 18.3752C32.8252 18.6061 32.729 18.8947 32.6136 19.0679Z" fill="black"/>
<path d="M16.047 31.0935V33.3832H15.6237V31.4783H15.2004L15.3736 31.0935H16.047Z" fill="black"/>
<path d="M17.0668 32.094C17.0091 32.0171 16.9706 31.9401 16.9706 31.8246C16.9706 31.7092 17.0091 31.6322 17.0668 31.5553C17.1245 31.4783 17.2015 31.4591 17.2977 31.4591C17.3939 31.4591 17.4709 31.4976 17.5286 31.5553C17.5863 31.6322 17.6248 31.7092 17.6248 31.8054C17.6248 31.9209 17.5863 32.0171 17.5286 32.0748C17.4709 32.1517 17.3939 32.1902 17.2977 32.1902C17.2015 32.1902 17.1245 32.171 17.0668 32.094ZM16.8359 33.3832H17.3362L17.6633 32.8252C17.8942 32.4404 18.0096 32.1133 18.0096 31.8246C18.0096 31.5938 17.9519 31.4013 17.8172 31.2474C17.6825 31.0935 17.5093 31.0358 17.3169 31.0358C17.1053 31.0358 16.9129 31.1127 16.7782 31.2667C16.6435 31.4206 16.5665 31.613 16.5665 31.8439C16.5665 32.0555 16.6243 32.2095 16.7397 32.3442C16.8551 32.4788 16.9898 32.5366 17.1822 32.5366C17.2592 32.5366 17.3554 32.5173 17.4516 32.4788L16.8359 33.3832Z" fill="black"/>
<path d="M18.4714 32.6136C18.7215 32.1903 18.8755 31.9401 18.9332 31.8247C18.9909 31.7285 19.0294 31.6323 19.0679 31.5361C19.0679 31.613 19.0679 31.7477 19.0679 31.9401C19.0679 32.1133 19.0679 32.3442 19.0679 32.6328H18.4714V32.6136ZM19.4335 32.6136V31.0551H19.0679L18.0481 32.729V32.9407H19.0679V33.3832H19.4335V32.9407H19.6451V32.6136H19.4335Z" fill="black"/>
<path d="M20.7804 33.0177C20.6649 33.0177 20.5687 32.9407 20.5302 32.806C20.4725 32.6713 20.4533 32.4789 20.4533 32.2288C20.4533 31.9787 20.4918 31.7862 20.5302 31.6516C20.588 31.5169 20.6649 31.4399 20.7804 31.4399C21.0113 31.4399 21.1267 31.69 21.1267 32.2095C21.1075 32.7675 20.992 33.0177 20.7804 33.0177ZM20.2032 31.3629C20.0685 31.5746 20.0107 31.8824 20.0107 32.2673C20.0107 32.6328 20.0877 32.9407 20.2224 33.1331C20.3571 33.3448 20.5495 33.441 20.7996 33.441C21.0305 33.441 21.2229 33.3255 21.3576 33.1139C21.4923 32.9022 21.5693 32.6136 21.5693 32.248C21.5693 31.8825 21.5115 31.6131 21.3769 31.3822C21.2422 31.1513 21.0305 31.0166 20.7804 31.0166C20.5303 31.0551 20.3378 31.1513 20.2032 31.3629Z" fill="black"/>
</svg>
